<svg width="168" height="168" viewBox="0 0 168 168" fill="none" xmlns="http://www.w3.org/2000/svg">
<path d="M86.6417 25.9552L84 23.5651L81.3583 25.9552L27.2205 74.937C25.7669 76.2522 24.9375 78.121 24.9375 80.0814V135.75C24.9375 141.238 29.3867 145.688 34.875 145.688H133.125C138.613 145.688 143.062 141.238 143.062 135.75V80.0814C143.062 78.121 142.233 76.2522 140.779 74.937L86.6417 25.9552Z" fill="#FFC700" stroke="black" stroke-width="7.875"/>
<path d="M26.25 80.0625L79.5212 114.751C81.4562 116.011 83.9426 116.049 85.915 114.848L143.062 80.0625" stroke="black" stroke-width="7.875"/>
<path d="M120.223 93.8945L122.062 92.7363V90.5625V29.25C122.062 25.4185 118.956 22.3125 115.125 22.3125H52.875C49.0435 22.3125 45.9375 25.4185 45.9375 29.25V90.5625V92.6466L47.6609 93.8185L78.8497 115.027C81.1304 116.578 84.1131 116.63 86.4471 115.161L120.223 93.8945Z" fill="#FFF4D9" stroke="black" stroke-width="7.875"/>
<path d="M64.3125 42C62.1379 42 60.375 43.7629 60.375 45.9375C60.375 48.1121 62.1379 49.875 64.3125 49.875V42ZM103.688 49.875C105.862 49.875 107.625 48.1121 107.625 45.9375C107.625 43.7629 105.862 42 103.688 42V49.875ZM64.3125 49.875H103.688V42H64.3125V49.875Z" fill="black"/>
<path d="M64.3125 60.375C62.1379 60.375 60.375 62.1379 60.375 64.3125C60.375 66.4871 62.1379 68.25 64.3125 68.25V60.375ZM103.688 68.25C105.862 68.25 107.625 66.4871 107.625 64.3125C107.625 62.1379 105.862 60.375 103.688 60.375V68.25ZM64.3125 68.25H103.688V60.375H64.3125V68.25Z" fill="black"/>
<path d="M64.3125 78.75C62.1379 78.75 60.375 80.5129 60.375 82.6875C60.375 84.8621 62.1379 86.625 64.3125 86.625V78.75ZM85.3125 86.625C87.4871 86.625 89.25 84.8621 89.25 82.6875C89.25 80.5129 87.4871 78.75 85.3125 78.75V86.625ZM64.3125 86.625H85.3125V78.75H64.3125V86.625Z" fill="black"/>
</svg>
