<svg width="32" height="32" viewBox="0 0 32 32" fill="none" xmlns="http://www.w3.org/2000/svg">
<path d="M25.9697 6.03004C24.9425 5.00279 23.7682 4.40075 22.649 4.28042C21.5523 4.16251 20.4509 4.49828 19.4895 5.45919C19.4892 5.45947 19.489 5.45975 19.4887 5.46002L6.78372 18.2404C6.21146 18.8161 5.81602 19.5436 5.64416 20.3369L4.22629 26.8817C4.1108 27.4148 4.58496 27.889 5.11808 27.7735L11.6629 26.3556C12.4562 26.1837 13.1837 25.7883 13.7593 25.216L26.5397 12.511C26.54 12.5108 26.5402 12.5105 26.5405 12.5103C27.5014 11.5489 27.8372 10.4474 27.7193 9.35071C27.599 8.2315 26.9969 7.05729 25.9697 6.03004Z" fill="#FFC700" stroke="black" stroke-width="1.5"/>
<path d="M25 14.5L18 7.5" stroke="black" stroke-width="1.5"/>
<mask id="path-3-inside-1_46_452" fill="white">
<path fill-rule="evenodd" clip-rule="evenodd" d="M6.81373 17.1465L6.25162 17.712C5.57848 18.3892 5.11332 19.245 4.91115 20.1782L3.49325 26.7232C3.26227 27.7894 4.2106 28.7377 5.27684 28.5067L11.8218 27.0889C12.755 26.8867 13.6108 26.4215 14.288 25.7484L14.8535 25.1863L6.81373 17.1465Z"/>
</mask>
<path fill-rule="evenodd" clip-rule="evenodd" d="M6.81373 17.1465L6.25162 17.712C5.57848 18.3892 5.11332 19.245 4.91115 20.1782L3.49325 26.7232C3.26227 27.7894 4.2106 28.7377 5.27684 28.5067L11.8218 27.0889C12.755 26.8867 13.6108 26.4215 14.288 25.7484L14.8535 25.1863L6.81373 17.1465Z" fill="#FFF4D9"/>
<path d="M6.81373 17.1465L5.74988 16.089L6.81053 15.022L7.87439 16.0858L6.81373 17.1465ZM6.25162 17.712L7.31547 18.7695L7.31547 18.7695L6.25162 17.712ZM4.91115 20.1782L6.37714 20.4958V20.4958L4.91115 20.1782ZM3.49325 26.7232L2.02726 26.4056L2.02726 26.4056L3.49325 26.7232ZM5.27684 28.5067L5.59443 29.9727L5.27684 28.5067ZM11.8218 27.0889L12.1394 28.5548H12.1394L11.8218 27.0889ZM14.288 25.7484L15.3455 26.8122H15.3455L14.288 25.7484ZM14.8535 25.1863L15.9142 24.1256L16.978 25.1895L15.911 26.2501L14.8535 25.1863ZM7.87758 18.2039L7.31547 18.7695L5.18777 16.6545L5.74988 16.089L7.87758 18.2039ZM7.31547 18.7695C6.84427 19.2435 6.51866 19.8426 6.37714 20.4958L3.44516 19.8606C3.70798 18.6475 4.31268 17.5349 5.18777 16.6545L7.31547 18.7695ZM6.37714 20.4958L4.95925 27.0407L2.02726 26.4056L3.44516 19.8606L6.37714 20.4958ZM4.95925 27.0407V27.0407L5.59443 29.9727C3.46195 30.4347 1.56528 28.538 2.02726 26.4056L4.95925 27.0407ZM4.95925 27.0407L11.5042 25.6229L12.1394 28.5548L5.59443 29.9727L4.95925 27.0407ZM11.5042 25.6229C12.1574 25.4813 12.7565 25.1557 13.2305 24.6845L15.3455 26.8122C14.4651 27.6873 13.3525 28.292 12.1394 28.5548L11.5042 25.6229ZM13.2305 24.6845L13.7961 24.1224L15.911 26.2501L15.3455 26.8122L13.2305 24.6845ZM7.87439 16.0858L15.9142 24.1256L13.7929 26.2469L5.75307 18.2071L7.87439 16.0858Z" fill="black" mask="url(#path-3-inside-1_46_452)"/>
<path fill-rule="evenodd" clip-rule="evenodd" d="M4.5135 22.0132L3.49312 26.7232C3.26213 27.7894 4.21046 28.7378 5.2767 28.5068L9.98672 27.4864L4.5135 22.0132Z" fill="black"/>
</svg>
