<svg width="18" height="16" viewBox="0 0 18 16" fill="none" xmlns="http://www.w3.org/2000/svg">
<path d="M8.14851 7.83221C8.14851 8.04695 8.24045 8.25289 8.4041 8.40473C8.56775 8.55657 8.78971 8.64187 9.02114 8.64187C9.25258 8.64187 9.47454 8.55657 9.63819 8.40473C9.80184 8.25289 9.89378 8.04695 9.89378 7.83221C9.89378 7.61748 9.80184 7.41154 9.63819 7.2597C9.47454 7.10786 9.25258 7.02255 9.02114 7.02255C8.78971 7.02255 8.56775 7.10786 8.4041 7.2597C8.24045 7.41154 8.14851 7.61748 8.14851 7.83221ZM11.7845 7.83221C11.7845 8.04695 11.8764 8.25289 12.0401 8.40473C12.2037 8.55657 12.4257 8.64187 12.6571 8.64187C12.8885 8.64187 13.1105 8.55657 13.2742 8.40473C13.4378 8.25289 13.5297 8.04695 13.5297 7.83221C13.5297 7.61748 13.4378 7.41154 13.2742 7.2597C13.1105 7.10786 12.8885 7.02255 12.6571 7.02255C12.4257 7.02255 12.2037 7.10786 12.0401 7.2597C11.8764 7.41154 11.7845 7.61748 11.7845 7.83221ZM4.51254 7.83221C4.51254 8.04695 4.60448 8.25289 4.76813 8.40473C4.93178 8.55657 5.15374 8.64187 5.38517 8.64187C5.61661 8.64187 5.83857 8.55657 6.00222 8.40473C6.16587 8.25289 6.2578 8.04695 6.2578 7.83221C6.2578 7.61748 6.16587 7.41154 6.00222 7.2597C5.83857 7.10786 5.61661 7.02255 5.38517 7.02255C5.15374 7.02255 4.93178 7.10786 4.76813 7.2597C4.60448 7.41154 4.51254 7.61748 4.51254 7.83221ZM16.5331 4.90394C16.1222 3.99814 15.5332 3.1851 14.7823 2.48677C14.0368 1.79248 13.1517 1.24061 12.1772 0.862394C11.1773 0.472745 10.1156 0.275391 9.02114 0.275391H8.98478C7.88308 0.280451 6.81593 0.482866 5.8124 0.880948C4.84624 1.26304 3.96944 1.8159 3.23086 2.5087C2.4873 3.20535 1.90373 4.01501 1.50014 4.91744C1.082 5.85192 0.871114 6.84544 0.876568 7.86763C0.882737 9.03906 1.18143 10.1932 1.7492 11.2395V13.8034C1.7492 14.0092 1.83731 14.2066 1.99414 14.3521C2.15097 14.4976 2.36368 14.5794 2.58547 14.5794H5.35063C6.47832 15.1062 7.72225 15.3833 8.98478 15.389H9.02296C10.1119 15.389 11.1682 15.1934 12.1626 14.8105C13.1322 14.4368 14.014 13.8913 14.7587 13.2046C15.5095 12.5147 16.1004 11.7085 16.5131 10.8094C16.9421 9.87829 17.1603 8.88814 17.1657 7.86595C17.1712 6.83869 16.9566 5.8418 16.5331 4.90394ZM13.7861 12.2921C12.5117 13.4627 10.8209 14.1071 9.02114 14.1071H8.99024C7.89399 14.102 6.80502 13.849 5.8433 13.3733L5.69059 13.2974H3.13087V10.9224L3.04906 10.7807C2.53639 9.88841 2.26369 8.87802 2.25824 7.86089C2.25097 6.17916 2.94362 4.60032 4.21439 3.41113C5.48334 2.22195 7.17952 1.5641 8.99205 1.55735H9.02296C9.93195 1.55735 10.8137 1.72097 11.6445 2.04483C12.4553 2.36026 13.1825 2.81401 13.8079 3.39427C14.4315 3.97284 14.9223 4.64924 15.2623 5.40155C15.615 6.18084 15.7913 7.00737 15.7877 7.86089C15.7768 9.54093 15.0659 11.1147 13.7861 12.2921Z" fill="black"/>
</svg>
