<svg width="1024" height="1024" viewBox="0 0 1024 1024" fill="none" xmlns="http://www.w3.org/2000/svg">
<path d="M288 421C288 433.73 293.057 445.939 302.059 454.941C311.061 463.943 323.27 469 336 469C348.73 469 360.939 463.943 369.941 454.941C378.943 445.939 384 433.73 384 421C384 408.27 378.943 396.061 369.941 387.059C360.939 378.057 348.73 373 336 373C323.27 373 311.061 378.057 302.059 387.059C293.057 396.061 288 408.27 288 421V421ZM640 421C640 433.73 645.057 445.939 654.059 454.941C663.061 463.943 675.27 469 688 469C700.73 469 712.939 463.943 721.941 454.941C730.943 445.939 736 433.73 736 421C736 408.27 730.943 396.061 721.941 387.059C712.939 378.057 700.73 373 688 373C675.27 373 663.061 378.057 654.059 387.059C645.057 396.061 640 408.27 640 421V421ZM512 64C264.6 64 64 264.6 64 512C64 759.4 264.6 960 512 960C759.4 960 960 759.4 960 512C960 264.6 759.4 64 512 64ZM775 775C740.8 809.2 701 836 656.7 854.8C611 874.2 562.3 884 512 884C461.7 884 413 874.2 367.2 854.8C322.967 836.119 282.788 809.016 248.9 775C214.7 740.8 187.9 701 169.1 656.7C149.8 611 140 562.3 140 512C140 461.7 149.8 413 169.2 367.2C187.881 322.967 214.984 282.788 249 248.9C283.2 214.7 323 187.9 367.3 169.1C413 149.8 461.7 140 512 140C562.3 140 611 149.8 656.8 169.2C701.033 187.881 741.212 214.984 775.1 249C809.3 283.2 836.1 323 854.9 367.3C874.2 413 884 461.7 884 512C884 562.3 874.2 611 854.8 656.8C836.142 701.016 809.035 741.166 775 775V775ZM664 533H615.9C611.7 533 608.1 536.2 607.8 540.4C604 589.9 562.5 629 512 629C461.5 629 419.9 589.9 416.2 540.4C415.9 536.2 412.3 533 408.1 533H360C358.915 532.999 357.841 533.218 356.843 533.645C355.846 534.072 354.945 534.697 354.197 535.483C353.449 536.268 352.868 537.198 352.49 538.216C352.113 539.233 351.946 540.316 352 541.4C356.4 625.7 426.5 693 512 693C597.5 693 667.6 625.7 672 541.4C672.054 540.316 671.888 539.233 671.51 538.216C671.132 537.198 670.551 536.268 669.803 535.483C669.055 534.697 668.154 534.072 667.157 533.645C666.159 533.218 665.085 532.999 664 533V533Z" fill="#FFD233"/>
</svg>
