<svg width="16" height="15" viewBox="0 0 16 15" fill="none" xmlns="http://www.w3.org/2000/svg">
<path d="M14.9295 3.72987C14.6973 3.19223 14.3625 2.70502 13.9438 2.29552C13.5249 1.8848 13.0309 1.55841 12.4887 1.33409C11.9265 1.10057 11.3236 0.981033 10.7148 0.982434C9.86079 0.982434 9.02755 1.2163 8.30345 1.65803C8.13022 1.7637 7.96565 1.87977 7.80974 2.00623C7.65383 1.87977 7.48926 1.7637 7.31603 1.65803C6.59193 1.2163 5.75869 0.982434 4.90466 0.982434C4.28969 0.982434 3.69378 1.10023 3.13078 1.33409C2.58683 1.55929 2.09659 1.88323 1.67564 2.29552C1.25642 2.70456 0.921528 3.19188 0.689956 3.72987C0.449166 4.28941 0.326172 4.88359 0.326172 5.49509C0.326172 6.07195 0.443969 6.67306 0.67783 7.28457C0.873581 7.7956 1.15421 8.32568 1.5128 8.86097C2.081 9.70807 2.86227 10.5915 3.83236 11.4871C5.43994 12.9717 7.03193 13.9973 7.09949 14.0388L7.51005 14.3021C7.69194 14.4182 7.92581 14.4182 8.1077 14.3021L8.51826 14.0388C8.58582 13.9955 10.1761 12.9717 11.7854 11.4871C12.7555 10.5915 13.5368 9.70807 14.1049 8.86097C14.4635 8.32568 14.7459 7.7956 14.9399 7.28457C15.1738 6.67306 15.2916 6.07195 15.2916 5.49509C15.2933 4.88359 15.1703 4.28941 14.9295 3.72987Z" fill="#F24E1E"/>
</svg>
