<svg width="688" height="688" viewBox="0 0 688 688" fill="none" xmlns="http://www.w3.org/2000/svg">
<g filter="url(#filter0_d_143_375)">
<path d="M354.818 106.293L344 96.5046L333.182 106.293L118.045 300.94C107.908 310.111 102.125 323.143 102.125 336.812V516C102.125 560.528 138.222 596.625 182.75 596.625H505.25C549.778 596.625 585.875 560.528 585.875 516V336.812C585.875 323.143 580.092 310.111 569.955 300.94L354.818 106.293Z" fill="#FFC700" stroke="black" stroke-width="32.25"/>
<path d="M107.5 327.875L335.459 476.313C337.394 477.573 339.88 477.611 341.852 476.41L585.875 327.875" stroke="black" stroke-width="32.25"/>
<path d="M492.342 384.521L499.875 379.777V370.875V139.75C499.875 113.033 478.217 91.375 451.5 91.375H236.5C209.783 91.375 188.125 113.033 188.125 139.75V370.875V379.41L195.183 384.209L312.103 463.715C328.006 474.529 348.805 474.896 365.079 464.649L492.342 384.521Z" fill="#FFF4D9" stroke="black" stroke-width="32.25"/>
<path d="M263.375 172C254.469 172 247.25 179.219 247.25 188.125C247.25 197.031 254.469 204.25 263.375 204.25V172ZM424.625 204.25C433.531 204.25 440.75 197.031 440.75 188.125C440.75 179.219 433.531 172 424.625 172V204.25ZM263.375 204.25H424.625V172H263.375V204.25Z" fill="black"/>
<path d="M263.375 247.25C254.469 247.25 247.25 254.469 247.25 263.375C247.25 272.281 254.469 279.5 263.375 279.5V247.25ZM424.625 279.5C433.531 279.5 440.75 272.281 440.75 263.375C440.75 254.469 433.531 247.25 424.625 247.25V279.5ZM263.375 279.5H424.625V247.25H263.375V279.5Z" fill="black"/>
<path d="M263.375 322.5C254.469 322.5 247.25 329.719 247.25 338.625C247.25 347.531 254.469 354.75 263.375 354.75V322.5ZM349.375 354.75C358.281 354.75 365.5 347.531 365.5 338.625C365.5 329.719 358.281 322.5 349.375 322.5V354.75ZM263.375 354.75H349.375V322.5H263.375V354.75Z" fill="black"/>
</g>
<defs>
<filter id="filter0_d_143_375" x="-4" y="0" width="696" height="696" filterUnits="userSpaceOnUse" color-interpolation-filters="sRGB">
<feFlood flood-opacity="0" result="BackgroundImageFix"/>
<feColorMatrix in="SourceAlpha" type="matrix" values="0 0 0 0 0 0 0 0 0 0 0 0 0 0 0 0 0 0 127 0" result="hardAlpha"/>
<feOffset dy="4"/>
<feGaussianBlur stdDeviation="2"/>
<feComposite in2="hardAlpha" operator="out"/>
<feColorMatrix type="matrix" values="0 0 0 0 0 0 0 0 0 0 0 0 0 0 0 0 0 0 0.25 0"/>
<feBlend mode="normal" in2="BackgroundImageFix" result="effect1_dropShadow_143_375"/>
<feBlend mode="normal" in="SourceGraphic" in2="effect1_dropShadow_143_375" result="shape"/>
</filter>
</defs>
</svg>
