<svg width="51" height="51" viewBox="0 0 51 51" fill="none" xmlns="http://www.w3.org/2000/svg">
<circle cx="25.7934" cy="25.2477" r="25" transform="rotate(-179.885 25.7934 25.2477)" fill="#FFC700"/>
<path d="M12.281 23.8594C11.4526 23.8663 10.7866 24.5434 10.7935 25.3718C10.8004 26.2002 11.4775 26.8662 12.3059 26.8593L12.281 23.8594ZM39.862 26.191C40.4429 25.6004 40.435 24.6507 39.8444 24.0698L30.2194 14.6035C29.6288 14.0226 28.6791 14.0305 28.0982 14.6211C27.5173 15.2117 27.5252 16.1615 28.1158 16.7424L36.6713 25.1569L28.2568 33.7123C27.6759 34.303 27.6838 35.2527 28.2744 35.8336C28.865 36.4145 29.8148 36.4066 30.3957 35.816L39.862 26.191ZM12.3059 26.8593L38.805 26.6392L38.7801 23.6393L12.281 23.8594L12.3059 26.8593Z" fill="black"/>
</svg>
