<svg width="56" height="56" viewBox="0 0 56 56" fill="none" xmlns="http://www.w3.org/2000/svg">
<circle cx="28" cy="27.6113" r="27" fill="#FFC700"/>
<circle cx="28" cy="27.6113" r="27" stroke="#C0BDBD"/>
<circle cx="28" cy="27.6113" r="27" stroke="black" stroke-opacity="0.2"/>
<path d="M38.4699 16.1414C37.4427 15.1141 36.2685 14.5121 35.1493 14.3917C34.0526 14.2738 32.9511 14.6096 31.9898 15.5705C31.9895 15.5708 31.9892 15.5711 31.9889 15.5714L19.284 28.3518C18.7117 28.9274 18.3163 29.6549 18.1444 30.4482L16.7265 36.993C16.611 37.5261 17.0852 38.0003 17.6183 37.8848L24.1631 36.4669C24.9564 36.2951 25.6839 35.8996 26.2596 35.3274L39.0399 22.6224C39.0402 22.6221 39.0404 22.6219 39.0407 22.6216C40.0017 21.6602 40.3375 20.5588 40.2196 19.462C40.0992 18.3428 39.4972 17.1686 38.4699 16.1414Z" fill="#FFC700" stroke="black" stroke-width="1.5"/>
<path d="M37.5 24.6113L30.5 17.6113" stroke="black" stroke-width="1.5"/>
<mask id="path-4-inside-1_487_686" fill="white">
<path fill-rule="evenodd" clip-rule="evenodd" d="M19.3137 27.2578L18.7516 27.8234C18.0784 28.5006 17.6133 29.3564 17.4111 30.2896L15.9932 36.8345C15.7622 37.9008 16.7105 38.8491 17.7768 38.6181L24.3217 37.2002C25.2549 36.9981 26.1107 36.5329 26.7879 35.8598L27.3535 35.2976L19.3137 27.2578Z"/>
</mask>
<path fill-rule="evenodd" clip-rule="evenodd" d="M19.3137 27.2578L18.7516 27.8234C18.0784 28.5006 17.6133 29.3564 17.4111 30.2896L15.9932 36.8345C15.7622 37.9008 16.7105 38.8491 17.7768 38.6181L24.3217 37.2002C25.2549 36.9981 26.1107 36.5329 26.7879 35.8598L27.3535 35.2976L19.3137 27.2578Z" fill="#FFF4D9"/>
<path d="M19.3137 27.2578L18.2499 26.2004L19.3105 25.1333L20.3744 26.1972L19.3137 27.2578ZM18.7516 27.8234L19.8154 28.8808V28.8808L18.7516 27.8234ZM17.4111 30.2896L18.8771 30.6072V30.6072L17.4111 30.2896ZM15.9932 36.8345L14.5272 36.517L15.9932 36.8345ZM17.7768 38.6181L18.0944 40.0841L17.7768 38.6181ZM24.3217 37.2002L24.6393 38.6662H24.6393L24.3217 37.2002ZM26.7879 35.8598L27.8454 36.9236H27.8454L26.7879 35.8598ZM27.3535 35.2976L28.4142 34.2369L29.478 35.3008L28.411 36.3614L27.3535 35.2976ZM20.3776 28.3153L19.8154 28.8808L17.6877 26.7659L18.2499 26.2004L20.3776 28.3153ZM19.8154 28.8808C19.3442 29.3549 19.0186 29.954 18.8771 30.6072L15.9451 29.972C16.2079 28.7588 16.8126 27.6463 17.6877 26.7659L19.8154 28.8808ZM18.8771 30.6072L17.4592 37.1521L14.5272 36.517L15.9451 29.972L18.8771 30.6072ZM17.4592 37.1521V37.1521L18.0944 40.0841C15.9619 40.5461 14.0652 38.6494 14.5272 36.517L17.4592 37.1521ZM17.4592 37.1521L24.0041 35.7342L24.6393 38.6662L18.0944 40.0841L17.4592 37.1521ZM24.0041 35.7342C24.6574 35.5927 25.2564 35.2671 25.7305 34.7959L27.8454 36.9236C26.965 37.7987 25.8525 38.4034 24.6393 38.6662L24.0041 35.7342ZM25.7305 34.7959L26.2961 34.2337L28.411 36.3614L27.8454 36.9236L25.7305 34.7959ZM20.3744 26.1972L28.4142 34.2369L26.2929 36.3583L18.2531 28.3185L20.3744 26.1972Z" fill="black" mask="url(#path-4-inside-1_487_686)"/>
<path fill-rule="evenodd" clip-rule="evenodd" d="M17.0133 32.1245L15.9929 36.8343C15.7619 37.9006 16.7103 38.8489 17.7765 38.6179L22.4863 37.5976L17.0133 32.1245Z" fill="black"/>
</svg>
