<svg width="82" height="81" viewBox="0 0 82 81" fill="none" xmlns="http://www.w3.org/2000/svg">
<path d="M80.4995 40.5C80.4995 62.0218 62.8322 79.5 40.9995 79.5C19.1669 79.5 1.49951 62.0218 1.49951 40.5C1.49951 18.9782 19.1669 1.5 40.9995 1.5C62.8322 1.5 80.4995 18.9782 80.4995 40.5Z" fill="white" stroke="black" stroke-width="3"/>
<path d="M40.9995 39.5C44.3773 39.5 47.3041 38.3785 49.377 36.1455C51.4384 33.925 52.4995 30.7741 52.4995 27C52.4995 23.2222 51.4337 20.2693 49.3013 18.2786C47.1877 16.3053 44.2629 15.5 40.9995 15.5C37.7361 15.5 34.8113 16.3053 32.6977 18.2786C30.5653 20.2693 29.4995 23.2222 29.4995 27C29.4995 30.7741 30.5607 33.925 32.622 36.1455C34.6949 38.3785 37.6218 39.5 40.9995 39.5Z" fill="#FFC700" stroke="black" stroke-width="3"/>
<path d="M40.9995 39.5H40.9995L40.9468 39.5C36.9285 39.4999 30.5702 39.4998 24.1697 43.7505C18.5381 47.4905 17.6712 52.9539 17.5281 57.9573C17.4555 60.4962 19.5358 62.5 21.9995 62.5H60.0307C62.4804 62.5 64.5366 60.526 64.5259 58.0249C64.5153 55.5443 64.3574 52.8968 63.4301 50.4066C62.4834 47.864 60.7653 45.5627 57.7877 43.7238C50.9484 39.5 45.0736 39.5 41.0203 39.5H40.9995H40.9995Z" fill="#FFC700" stroke="black" stroke-width="3"/>
<path d="M38.4995 26.5C38.4995 25.6716 37.8279 25 36.9995 25C36.1711 25 35.4995 25.6716 35.4995 26.5H38.4995ZM46.4995 26.5C46.4995 25.6716 45.8279 25 44.9995 25C44.1711 25 43.4995 25.6716 43.4995 26.5H46.4995ZM43.4995 27C43.4995 28.4602 43.2544 29.3182 42.9114 29.7898C42.6435 30.1582 42.1627 30.5 40.9995 30.5V33.5C42.8363 33.5 44.3555 32.9046 45.3376 31.5544C46.2446 30.3074 46.4995 28.6654 46.4995 27H43.4995ZM40.9995 30.5C39.8363 30.5 39.3555 30.1582 39.0876 29.7898C38.7446 29.3182 38.4995 28.4602 38.4995 27H35.4995C35.4995 28.6654 35.7544 30.3074 36.6614 31.5544C37.6435 32.9046 39.1627 33.5 40.9995 33.5V30.5ZM38.4995 27V26.5H35.4995V27H38.4995ZM46.4995 27V26.5H43.4995V27H46.4995Z" fill="black"/>
</svg>
