<svg width="31" height="31" viewBox="0 0 31 31" fill="none" xmlns="http://www.w3.org/2000/svg">
<path d="M16.0182 16.0709L27.4959 3.94358C27.5565 3.8795 27.6076 3.8642 27.645 3.86048C27.6908 3.85593 27.749 3.86687 27.8059 3.90098C27.8629 3.93508 27.9 3.98124 27.9176 4.02379C27.9319 4.05854 27.9425 4.11078 27.9146 4.19449L20.2628 27.1498C20.1876 27.3756 19.8692 27.3785 19.79 27.154L15.9641 16.3261C15.9328 16.2376 15.9537 16.1391 16.0182 16.0709Z" fill="#FFC700" stroke="black" stroke-width="1.5"/>
<path d="M27.1008 3.43881L15.4233 15.5253C15.3563 15.5946 15.2555 15.6192 15.1642 15.5887L3.05865 11.5399C2.83142 11.4639 2.83092 11.1426 3.05791 11.0659L26.841 3.02826C26.9218 3.00096 26.9737 3.01033 27.0091 3.02432C27.0518 3.04118 27.0977 3.07681 27.1323 3.1314C27.1668 3.186 27.1794 3.24276 27.1763 3.28855C27.1738 3.32657 27.1601 3.37749 27.1008 3.43881Z" fill="#FFC700" stroke="black" stroke-width="1.5"/>
</svg>
