<svg width="32" height="32" viewBox="0 0 32 32" fill="none" xmlns="http://www.w3.org/2000/svg">
<path d="M16 16.25C17.6889 16.25 19.1523 15.6892 20.1888 14.5728C21.2194 13.4625 21.75 11.8871 21.75 10C21.75 8.11111 21.2171 6.63467 20.1509 5.63928C19.0941 4.65267 17.6317 4.25 16 4.25C14.3683 4.25 12.9059 4.65267 11.8491 5.63928C10.7829 6.63467 10.25 8.11111 10.25 10C10.25 11.8871 10.7806 13.4625 11.8112 14.5728C12.8477 15.6892 14.3111 16.25 16 16.25Z" fill="#FFC700" stroke="black" stroke-width="1.5"/>
<path d="M16 16.25H16L15.9737 16.25C13.9645 16.25 10.7853 16.2499 7.58508 18.3752C4.76928 20.2452 4.33585 22.977 4.26429 25.4786C4.22797 26.7481 5.26813 27.75 6.5 27.75H25.5156C26.7405 27.75 27.7686 26.763 27.7632 25.5124C27.7579 24.2721 27.679 22.9484 27.2153 21.7033C26.7419 20.432 25.8829 19.2813 24.3941 18.3619C20.9744 16.25 18.0371 16.25 16.0104 16.25H16H16Z" fill="#FFC700" stroke="black" stroke-width="1.5"/>
<path d="M14.75 9.75C14.75 9.33579 14.4142 9 14 9C13.5858 9 13.25 9.33579 13.25 9.75H14.75ZM18.75 9.75C18.75 9.33579 18.4142 9 18 9C17.5858 9 17.25 9.33579 17.25 9.75H18.75ZM17.25 10C17.25 10.7301 17.1275 11.1591 16.956 11.3949C16.822 11.5791 16.5816 11.75 16 11.75V13.25C16.9184 13.25 17.678 12.9523 18.169 12.2772C18.6225 11.6537 18.75 10.8327 18.75 10H17.25ZM16 11.75C15.4184 11.75 15.178 11.5791 15.044 11.3949C14.8725 11.1591 14.75 10.7301 14.75 10H13.25C13.25 10.8327 13.3775 11.6537 13.831 12.2772C14.322 12.9523 15.0816 13.25 16 13.25V11.75ZM14.75 10V9.75H13.25V10H14.75ZM18.75 10V9.75H17.25V10H18.75Z" fill="black"/>
</svg>
