<svg width="32" height="32" viewBox="0 0 32 32" fill="none" xmlns="http://www.w3.org/2000/svg">
<path d="M16.5 1.75C16.5 1.33579 16.1642 1 15.75 1C15.3358 1 15 1.33579 15 1.75H16.5ZM15 5.75C15 6.16421 15.3358 6.5 15.75 6.5C16.1642 6.5 16.5 6.16421 16.5 5.75H15ZM15 1.75V5.75H16.5V1.75H15Z" fill="black"/>
<path d="M16.5 25.75C16.5 25.3358 16.1642 25 15.75 25C15.3358 25 15 25.3358 15 25.75H16.5ZM15 29.75C15 30.1642 15.3358 30.5 15.75 30.5C16.1642 30.5 16.5 30.1642 16.5 29.75H15ZM15 25.75V29.75H16.5V25.75H15Z" fill="black"/>
<path d="M29.75 16.5C30.1642 16.5 30.5 16.1642 30.5 15.75C30.5 15.3358 30.1642 15 29.75 15L29.75 16.5ZM25.75 15C25.3358 15 25 15.3358 25 15.75C25 16.1642 25.3358 16.5 25.75 16.5L25.75 15ZM29.75 15L25.75 15L25.75 16.5L29.75 16.5L29.75 15Z" fill="black"/>
<path d="M5.75 16.5C6.16421 16.5 6.5 16.1642 6.5 15.75C6.5 15.3358 6.16421 15 5.75 15L5.75 16.5ZM1.75 15C1.33579 15 1 15.3358 1 15.75C1 16.1642 1.33579 16.5 1.75 16.5L1.75 15ZM5.75 15L1.75 15L1.75 16.5L5.75 16.5L5.75 15Z" fill="black"/>
<path d="M26.1798 6.38092C26.4727 6.08802 26.4727 5.61315 26.1798 5.32026C25.8869 5.02736 25.4121 5.02736 25.1192 5.32026L26.1798 6.38092ZM22.2907 8.14868C21.9979 8.44158 21.9979 8.91645 22.2907 9.20934C22.5836 9.50224 23.0585 9.50224 23.3514 9.20934L22.2907 8.14868ZM25.1192 5.32026L22.2907 8.14868L23.3514 9.20934L26.1798 6.38092L25.1192 5.32026Z" fill="black"/>
<path d="M9.20925 23.3516C9.50215 23.0587 9.50215 22.5839 9.20925 22.291C8.91636 21.9981 8.44149 21.9981 8.14859 22.291L9.20925 23.3516ZM5.32017 25.1194C5.02727 25.4123 5.02727 25.8872 5.32017 26.18C5.61306 26.4729 6.08793 26.4729 6.38083 26.18L5.32017 25.1194ZM8.14859 22.291L5.32017 25.1194L6.38083 26.18L9.20925 23.3516L8.14859 22.291Z" fill="black"/>
<path d="M25.1192 26.1797C25.4121 26.4726 25.8869 26.4726 26.1798 26.1797C26.4727 25.8869 26.4727 25.412 26.1798 25.1191L25.1192 26.1797ZM23.3514 22.2907C23.0585 21.9978 22.5836 21.9978 22.2907 22.2907C21.9979 22.5835 21.9979 23.0584 22.2907 23.3513L23.3514 22.2907ZM26.1798 25.1191L23.3514 22.2907L22.2907 23.3513L25.1192 26.1797L26.1798 25.1191Z" fill="black"/>
<path d="M8.14859 9.20904C8.44149 9.50193 8.91636 9.50193 9.20925 9.20904C9.50215 8.91615 9.50215 8.44127 9.20925 8.14838L8.14859 9.20904ZM6.38083 5.31995C6.08793 5.02706 5.61306 5.02706 5.32017 5.31995C5.02727 5.61285 5.02727 6.08772 5.32017 6.38061L6.38083 5.31995ZM9.20925 8.14838L6.38083 5.31995L5.32017 6.38061L8.14859 9.20904L9.20925 8.14838Z" fill="black"/>
<path d="M15.75 26.25C21.6127 26.25 26.25 21.6127 26.25 15.75C26.25 9.88726 21.6127 5.25 15.75 5.25C9.88726 5.25 5.25 9.88726 5.25 15.75C5.25 21.6127 9.88726 26.25 15.75 26.25Z" fill="#FFC700" stroke="black" stroke-width="1.5"/>
<path d="M13 16.7499C13 16.3356 12.6642 15.9999 12.25 15.9999C11.8358 15.9999 11.5 16.3356 11.5 16.7499H13ZM20 16.7499C20 16.3357 19.6642 15.9999 19.25 15.9999C18.8358 15.9999 18.5 16.3357 18.5 16.7499H20ZM18.5 16.9999C18.5 17.8944 18.1449 18.4915 17.6544 18.8817C17.1418 19.2894 16.4401 19.4999 15.75 19.4999V20.9999C16.7167 20.9999 17.765 20.7103 18.5882 20.0556C19.4335 19.3832 20 18.3553 20 16.9999H18.5ZM15.75 19.4999C15.0599 19.4999 14.3582 19.2894 13.8456 18.8817C13.3551 18.4915 13 17.8944 13 16.9999H11.5C11.5 18.3553 12.0665 19.3832 12.9118 20.0556C13.735 20.7103 14.7833 20.9999 15.75 20.9999V19.4999ZM13 16.9999V16.7499H11.5V16.9999H13ZM20 16.9999V16.7499H18.5V16.9999H20Z" fill="black"/>
<circle cx="18" cy="13.5" r="1" fill="black"/>
<circle cx="18" cy="13.5" r="1" fill="black"/>
<circle cx="18" cy="13.5" r="1" fill="black"/>
<circle cx="18" cy="13.5" r="1" fill="black"/>
<circle cx="13.5" cy="13.5" r="1" fill="black"/>
<circle cx="13.5" cy="13.5" r="1" fill="black"/>
<circle cx="13.5" cy="13.5" r="1" fill="black"/>
<circle cx="13.5" cy="13.5" r="1" fill="black"/>
</svg>
